<svg width="888" height="770" viewBox="0 0 888 770" fill="none" xmlns="http://www.w3.org/2000/svg">
<g clip-path="url(#clip0_4_40)">
<path d="M49.231 759.086C49.231 759.086 34.8291 732.503 0 743.998L49.231 759.086Z" fill="#02A744"/>
<path d="M50.0995 758.437C50.0995 758.437 32.2886 735.797 57.9958 707.554L50.0995 758.437Z" fill="#02A744"/>
<path d="M888 757.412H0V759.412H888V757.412Z" fill="white"/>
<path d="M673.872 513.043L693.099 587.815C693.099 587.815 693.811 640.511 698.084 661.163C702.357 681.814 716.599 731.662 716.599 731.662L733.69 734.511L730.129 664.723C730.129 664.723 730.129 622.709 726.569 613.451C723.008 604.193 715.887 509.482 715.887 509.482L673.872 513.043Z" fill="#FBBEBE"/>
<path opacity="0.1" d="M672.872 508.043L692.099 582.815C692.099 582.815 692.811 635.511 697.084 656.163C701.357 676.814 715.599 726.662 715.599 726.662L732.69 729.511L729.129 659.723C729.129 659.723 729.129 617.709 725.569 608.451C722.008 599.193 714.887 504.482 714.887 504.482L672.872 508.043Z" fill="black"/>
<path d="M727.179 199.643C703.442 199.643 684.199 220.998 684.199 247.341V280.809H694.493L700.452 268.409L698.962 280.809H765.125L770.542 269.536L769.188 280.809H776.637V254.53C776.637 224.217 754.494 199.643 727.179 199.643Z" fill="#2F2E41"/>
<path d="M655.713 501.293C655.713 501.293 647.168 537.611 658.561 541.171C669.955 544.732 667.107 501.293 667.107 501.293H655.713Z" fill="#FBBEBE"/>
<path d="M669.955 316.854L664.258 323.263L665.683 446.46L652.864 504.853L681.349 507.702L695.591 390.202L691.319 330.384L669.955 316.854Z" fill="#D0CDE1"/>
<path opacity="0.1" d="M669.697 316.854L664 323.263L665.424 446.46L652.606 504.853L681.091 507.702L695.333 390.202L691.06 330.384L669.697 316.854Z" fill="black"/>
<path d="M723.376 276.133C740.274 276.133 753.973 262.434 753.973 245.535C753.973 228.637 740.274 214.938 723.376 214.938C706.478 214.938 692.779 228.637 692.779 245.535C692.779 262.434 706.478 276.133 723.376 276.133Z" fill="#FBBEBE"/>
<path d="M705.834 263.894C705.834 263.894 714.809 310.401 710.729 315.297C706.65 320.192 753.973 306.322 753.973 306.322C753.973 306.322 738.471 274.501 746.63 256.55L705.834 263.894Z" fill="#FBBEBE"/>
<path d="M783.182 467.823C783.182 467.823 791.727 504.141 780.333 507.702C768.94 511.262 771.788 467.823 771.788 467.823H783.182Z" fill="#FBBEBE"/>
<path d="M717.311 504.497C717.311 504.497 705.205 577.133 705.917 587.815C706.629 598.497 705.917 599.921 705.917 599.921C705.917 599.921 693.811 631.254 690.251 649.057C686.69 666.86 678.857 689.648 678.857 689.648C678.857 689.648 669.599 710.299 677.433 710.299C685.266 710.299 695.948 707.45 695.948 707.45C695.92 699.225 698.681 691.233 703.781 684.779C712.326 673.981 737.962 623.421 737.962 617.012C737.962 610.603 742.235 592.087 742.235 592.087L758.614 513.043L717.311 504.497Z" fill="#FBBEBE"/>
<path d="M667.463 456.073C667.463 456.073 655.357 517.315 666.039 518.739C676.72 520.164 691.675 509.482 710.902 521.588C730.129 533.694 762.174 530.845 762.174 530.845C762.174 530.845 784.25 474.588 764.311 461.058C744.371 447.528 667.463 456.073 667.463 456.073Z" fill="#2F2E41"/>
<path d="M680.993 701.754C684.127 700.389 687.572 699.897 690.963 700.329C694.208 700.81 697.514 700.047 700.22 698.193C700.22 698.193 694.523 718.844 695.235 726.678C695.948 734.511 693.099 767.98 678.145 764.42C663.19 760.859 658.917 750.178 664.614 731.662C670.311 713.147 668.887 691.784 668.887 691.784C668.887 691.784 679.28 681.049 681.205 682.5C683.129 683.951 680.993 701.754 680.993 701.754Z" fill="#2F2E41"/>
<path d="M728.705 728.102C728.705 728.102 721.584 712.435 713.038 726.678C704.493 740.92 703.781 744.481 703.781 744.481C703.781 744.481 679.569 766.556 696.66 768.693C713.75 770.829 727.281 767.98 727.281 764.42C727.281 760.859 735.826 761.571 736.538 758.723C737.25 755.875 735.114 729.526 735.114 729.526L728.705 728.102Z" fill="#2F2E41"/>
<path d="M744.728 287.657C744.728 287.657 714.819 293.354 711.258 292.642C710.456 292.501 709.645 292.415 708.831 292.385C701.867 292.068 694.962 293.781 688.953 297.314C679.037 303.075 664.258 313.326 664.258 323.263C664.258 338.218 683.485 363.854 683.485 363.854C683.485 363.854 665.683 425.096 667.107 430.793C668.531 436.49 656.425 455.717 664.258 462.126C672.092 468.535 746.864 462.126 760.394 468.535C773.924 474.944 767.515 383.081 767.515 383.081C767.515 383.081 803.833 299.763 785.318 291.93C779.327 289.395 774.156 287.457 769.902 285.995C765.806 284.585 761.47 284.006 757.147 284.291C752.825 284.577 748.603 285.721 744.728 287.657Z" fill="#D0CDE1"/>
<path d="M772.5 292.642L788.84 295.343C788.84 295.343 796 302.612 796 306.172C796 309.733 794.576 463.55 792.439 468.535C790.303 473.52 766.803 471.384 766.803 471.384L771.076 383.793L772.5 292.642Z" fill="#D0CDE1"/>
<path d="M739.397 212.782C737.329 210.005 734.649 207.741 731.564 206.167C728.48 204.593 725.074 203.751 721.612 203.706H720.768C704.499 203.706 691.31 218.428 691.31 236.588L696.761 236.588L697.642 229.887L698.932 236.588H731.265L733.973 230.919L733.296 236.588H739.657C742.625 251.329 738.36 266.069 726.863 280.809H737.698L743.116 269.471L741.761 280.809H762.416L766.479 254.73C766.479 235.199 755.131 218.637 739.397 212.782Z" fill="#2F2E41"/>
<path d="M745.336 215.528C754.226 215.528 761.433 208.321 761.433 199.43C761.433 190.54 754.226 183.332 745.336 183.332C736.445 183.332 729.238 190.54 729.238 199.43C729.238 208.321 736.445 215.528 745.336 215.528Z" fill="#2F2E41"/>
<path d="M563.687 180.243H559.52V66.0767C559.52 57.3994 557.811 48.807 554.49 40.7902C551.169 32.7734 546.302 25.4891 540.166 19.3534C534.031 13.2176 526.746 8.35039 518.729 5.02974C510.713 1.70908 502.12 -2.28347e-05 493.443 -5.09951e-07H251.565C242.888 -2.67744e-05 234.296 1.70908 226.279 5.02973C218.262 8.35038 210.978 13.2176 204.842 19.3533C198.706 25.4891 193.839 32.7734 190.518 40.7902C187.198 48.807 185.489 57.3994 185.489 66.0767V692.404C185.489 701.082 187.198 709.674 190.518 717.691C193.839 725.708 198.706 732.992 204.842 739.128C210.978 745.263 218.262 750.131 226.279 753.451C234.296 756.772 242.888 758.481 251.565 758.481H493.443C502.12 758.481 510.713 756.772 518.729 753.451C526.746 750.131 534.031 745.263 540.166 739.128C546.302 732.992 551.169 725.708 554.49 717.691C557.811 709.674 559.52 701.082 559.52 692.404V261.509H563.687V180.243Z" fill="#3F3D56"/>
<path opacity="0.2" d="M496.109 17.1909H464.536C465.988 20.7506 466.542 24.6128 466.15 28.4372C465.758 32.2616 464.431 35.9309 462.287 39.1217C460.142 42.3126 457.246 44.9271 453.853 46.735C450.46 48.5428 446.675 49.4886 442.83 49.4889H304.262C300.417 49.4886 296.632 48.5428 293.239 46.735C289.846 44.9271 286.95 42.3126 284.805 39.1217C282.661 35.9309 281.334 32.2616 280.942 28.4372C280.55 24.6128 281.104 20.7506 282.556 17.1909H253.067C246.587 17.1908 240.17 18.4672 234.183 20.947C228.196 23.4268 222.756 27.0616 218.174 31.6437C213.592 36.2258 209.957 41.6656 207.478 47.6525C204.998 53.6393 203.721 60.056 203.721 66.5361V691.945C203.721 698.425 204.998 704.842 207.478 710.828C209.957 716.815 213.592 722.255 218.174 726.837C222.756 731.419 228.196 735.054 234.183 737.534C240.17 740.014 246.587 741.29 253.067 741.29H496.109C502.589 741.29 509.006 740.014 514.993 737.534C520.98 735.054 526.42 731.419 531.002 726.837C535.584 722.255 539.219 716.815 541.698 710.828C544.178 704.842 545.455 698.425 545.455 691.945V66.5361C545.455 60.056 544.178 53.6393 541.698 47.6525C539.219 41.6656 535.584 36.2258 531.002 31.6437C526.419 27.0616 520.98 23.4268 514.993 20.947C509.006 18.4672 502.589 17.1908 496.109 17.1909Z" fill="black"/>
<path d="M438.724 436.135H485.548V424.863H438.724V436.135Z" fill="#63FFE9"/>
<path d="M276.573 436.135H293.048V424.863H276.573V436.135Z" fill="#63FFE9"/>
<path d="M243.623 436.135H260.098V424.863H243.623V436.135Z" fill="#63FFE9"/>
<path d="M310.391 436.135H422.249V424.863H310.391V436.135Z" fill="#63FFE9"/>
<path d="M335.537 508.973H352.012V497.701H335.537V508.973Z" fill="#63FFE9"/>
<path d="M302.587 508.973H319.062V497.701H302.587V508.973Z" fill="#63FFE9"/>
<path d="M369.355 508.973H481.213V497.701H369.355V508.973Z" fill="#63FFE9"/>
<path d="M304.321 461.282H351.145V450.009H304.321V461.282Z" fill="#63FFE9"/>
<path d="M241.021 461.282H287.846V450.009H241.021V461.282Z" fill="#63FFE9"/>
<path d="M495.087 461.282H511.562V450.009H495.087V461.282Z" fill="#63FFE9"/>
<path d="M366.753 461.282H478.611V450.009H366.753V461.282Z" fill="#63FFE9"/>
<path d="M448.262 474.288H401.438V485.561H448.262V474.288Z" fill="#63FFE9"/>
<path d="M511.562 474.288H464.738V485.561H511.562V474.288Z" fill="#63FFE9"/>
<path d="M257.497 474.288H241.021V485.561H257.497V474.288Z" fill="#63FFE9"/>
<path d="M385.83 474.288H273.972V485.561H385.83V474.288Z" fill="#63FFE9"/>
<path d="M374.773 330.032C424.186 330.032 464.244 289.975 464.244 240.562C464.244 191.149 424.186 151.092 374.773 151.092C325.36 151.092 285.303 191.149 285.303 240.562C285.303 289.975 325.36 330.032 374.773 330.032Z" fill="#63FFE9"/>
<path d="M368.383 272.516C384.265 272.516 397.141 259.64 397.141 243.757C397.141 227.875 384.265 214.999 368.383 214.999C352.5 214.999 339.624 227.875 339.624 243.757C339.624 259.64 352.5 272.516 368.383 272.516Z" fill="white"/>
<path d="M369.257 245.479C367.467 242.725 368.372 238.98 367.117 235.945C365.146 231.179 359.022 230.062 353.883 229.627C350.479 229.19 347.032 229.199 343.63 229.655C342.126 229.905 340.701 230.5 339.467 231.395C338.233 232.29 337.223 233.459 336.518 234.811C335.758 236.335 335.95 231.558 336.437 225.425C336.93 219.166 339.397 213.226 343.483 208.459C347.569 203.693 353.063 200.347 359.173 198.903C359.245 198.886 359.317 198.869 359.389 198.852C365.646 197.409 372.097 196.347 378.475 197.096C384.852 197.845 391.209 200.598 395.189 205.637C397.008 207.94 398.294 210.656 400.325 212.775C403.893 216.498 409.182 217.853 414.04 219.58C419.535 221.534 424.877 224.214 429.079 228.257C433.282 232.3 436.261 237.84 436.349 243.671C436.452 250.473 432.125 257.492 425.153 258.833C423.941 259.045 422.795 259.539 421.81 260.276C415.152 265.438 422.747 270.841 422.694 276.652C422.65 281.501 417.252 284.661 412.408 284.887C407.88 284.968 403.464 283.472 399.918 280.655C396.372 277.838 393.916 273.875 392.971 269.445C392.241 265.466 392.805 261.379 393.28 257.361C393.823 252.762 383.919 241.933 390.462 249.871C391.739 251.379 392.601 253.195 392.963 255.137C394.052 261.478 388.282 263.611 384.643 267.125C382.645 269.112 381.244 271.62 380.599 274.363C379.953 277.106 380.09 279.976 380.993 282.645C377.992 279.927 376.034 276.246 375.458 272.239C374.881 268.231 375.721 264.148 377.833 260.693C379.006 258.896 380.516 257.332 381.627 255.496C383.362 252.631 383.84 246.401 378.985 246.572C375.52 246.694 371.92 249.579 369.257 245.479Z" fill="#2F2E41"/>
</g>
<defs>
<clipPath id="clip0_4_40">
<rect width="888" height="769.428" fill="white"/>
</clipPath>
</defs>
</svg>
