<!--?xml version="1.0" standalone="no"?-->
              <svg id="sw-js-blob-svg" viewBox="0 0 100 100" xmlns="http://www.w3.org/2000/svg" version="1.1">
                    <defs> 
                        <linearGradient id="sw-gradient" x1="0" x2="1" y1="1" y2="0">
                            <stop id="stop1" stop-color="rgba(248, 117, 55, 1)" offset="0%"></stop>
                            <stop id="stop2" stop-color="rgba(251, 168, 31, 1)" offset="100%"></stop>
                        </linearGradient>
                    </defs>
                <path fill="url(#sw-gradient)" d="M22.8,-26.5C30.2,-21,37.3,-14.4,39.3,-6.4C41.3,1.6,38.3,11,33.5,19.4C28.7,27.9,22.2,35.4,14.4,37.3C6.6,39.2,-2.4,35.4,-11.6,32C-20.8,28.6,-30.1,25.7,-33.8,19.4C-37.6,13.2,-35.8,3.6,-33.7,-5.6C-31.7,-14.7,-29.3,-23.4,-23.7,-29.3C-18,-35.1,-9,-38,-0.6,-37.2C7.7,-36.5,15.5,-32,22.8,-26.5Z" width="100%" height="100%" transform="translate(50 50)" stroke-width="0" style="transition: all 0.3s ease 0s;"></path>
              </svg>